<svg width="92" height="92" viewBox="0 0 92 92" fill="none" xmlns="http://www.w3.org/2000/svg">
<path d="M79.4274 0H12.5726C5.62893 0 0 5.62893 0 12.5726V79.4274C0 86.3711 5.62893 92 12.5726 92H79.4274C86.3711 92 92 86.3711 92 79.4274V12.5726C92 5.62893 86.3711 0 79.4274 0Z" fill="#252521"/>
<path d="M69.1694 50.3241C65.8719 50.3865 62.7615 51.251 60.0344 52.726C59.7626 52.873 59.4685 52.5611 59.6333 52.2982C61.6475 49.072 62.7749 45.2397 62.6679 41.1446C62.3828 30.1826 53.2076 21.3862 42.2412 21.5511C31.2925 21.716 22.4249 30.6816 22.4249 41.6748C22.4249 52.668 31.4574 61.7986 42.5486 61.7986C45.9932 61.7986 49.2417 60.9296 52.0802 59.3923C52.3521 59.2452 52.6506 59.5572 52.4857 59.8201C50.6276 62.7968 49.5269 66.2903 49.4556 70.029C49.4556 70.2563 49.6338 70.439 49.8566 70.439H57.1513C57.3741 70.439 57.5523 70.2563 57.5657 70.0335C57.7751 63.7192 62.8596 58.6392 69.1694 58.4253C69.3922 58.4209 69.5749 58.2382 69.5749 58.0109V50.7163C69.5749 50.4935 69.3922 50.3152 69.1694 50.3152V50.3241ZM41.9248 53.6796C35.8199 53.3721 30.8558 48.408 30.5484 42.3032C30.1874 35.1645 36.0561 29.3047 43.1903 29.6746C49.2952 29.9909 54.2504 34.955 54.5534 41.0599C54.9099 48.1852 49.0546 54.0361 41.9248 53.6796Z" fill="white"/>
</svg>
