<svg width="393" height="92" viewBox="0 0 393 92" fill="none" xmlns="http://www.w3.org/2000/svg">
<path d="M79.4271 0H12.5725C5.6289 0 0 5.62893 0 12.5726V79.4274C0 86.3711 5.6289 92 12.5725 92H79.4271C86.3707 92 91.9996 86.3711 91.9996 79.4274V12.5726C91.9996 5.62893 86.3707 0 79.4271 0Z" fill="#252521"/>
<path d="M69.6715 50.4179C66.3031 50.4816 63.1258 51.3647 60.34 52.8714C60.0624 53.0216 59.7619 52.703 59.9304 52.4344C61.9878 49.1388 63.1395 45.2241 63.0302 41.0408C62.7389 29.8429 53.3664 20.8573 42.1641 21.0258C30.9799 21.1942 21.9215 30.3528 21.9215 41.5825C21.9215 52.8122 31.1483 62.1392 42.4781 62.1392C45.9968 62.1392 49.3152 61.2516 52.2148 59.6811C52.4925 59.5309 52.7974 59.8496 52.629 60.1181C50.7308 63.1588 49.6065 66.7276 49.5337 70.5467C49.5337 70.7789 49.7158 70.9655 49.9434 70.9655H57.3949C57.6225 70.9655 57.8046 70.7789 57.8182 70.5513C58.0322 64.1011 63.226 58.9119 69.6715 58.6934C69.8991 58.6888 70.0858 58.5022 70.0858 58.27V50.8184C70.0858 50.5908 69.8991 50.4088 69.6715 50.4088V50.4179ZM41.8409 53.8455C35.6047 53.5314 30.5338 48.4605 30.2197 42.2243C29.851 34.932 35.8459 28.9462 43.1336 29.324C49.3698 29.6472 54.4316 34.7181 54.7411 40.9543C55.1053 48.2329 49.124 54.2097 41.8409 53.8455Z" fill="white"/>
<path d="M380.204 66.0194C379.185 66.0194 378.676 65.5103 378.676 64.492V19.687C378.676 18.6687 379.185 18.1596 380.204 18.1596H390.047C391.065 18.1596 391.574 18.6687 391.574 19.687V64.492C391.574 65.5103 391.065 66.0194 390.047 66.0194H380.204ZM385.125 13.9167C382.976 13.9167 381.165 13.2944 379.694 12.0498C378.28 10.7487 377.573 9.05151 377.573 6.95835C377.573 4.92176 378.308 3.25289 379.779 1.95173C381.25 0.650577 383.032 0 385.125 0C387.218 0 389 0.650577 390.471 1.95173C391.942 3.25289 392.678 4.92176 392.678 6.95835C392.678 9.05151 391.942 10.7487 390.471 12.0498C389.057 13.2944 387.275 13.9167 385.125 13.9167Z" fill="#252521"/>
<path d="M345.353 67.0362C340.771 67.0362 337.009 65.7916 334.067 63.3025C331.125 60.7567 329.655 57.221 329.655 52.6952C329.655 47.83 331.578 44.0963 335.425 41.494C337.914 39.7968 341.648 38.4957 346.626 37.5905L358.506 35.3842C359.468 35.2145 359.92 34.6205 359.864 33.6022C359.524 31.6788 358.845 30.1513 357.827 29.0199C356.583 27.6621 354.716 26.9833 352.227 26.9833C350.529 26.9833 348.974 27.4924 347.559 28.5107C346.145 29.4724 345.127 30.8019 344.505 32.499C344.278 33.3476 343.713 33.7719 342.807 33.7719H333.134C331.946 33.7719 331.493 33.2062 331.776 32.0748C332.851 27.153 335.312 23.4475 339.159 20.9584C343.005 18.4126 347.39 17.1398 352.311 17.1398C355.197 17.1398 357.912 17.5358 360.458 18.3278C363.003 19.1198 365.181 20.3078 366.992 21.8918C368.802 23.4758 370.103 25.3144 370.895 27.4076C371.744 29.5007 372.253 31.6505 372.423 33.8568C372.649 36.0065 372.762 38.8068 372.762 42.2577V64.4905C372.762 65.5088 372.253 66.0179 371.235 66.0179H361.391C360.373 66.0179 359.864 65.5088 359.864 64.4905V62.8782C359.864 61.973 359.694 61.5204 359.355 61.5204C359.185 61.5204 358.93 61.7184 358.591 62.1145C357.629 63.1893 356.781 63.953 356.045 64.4056C353.443 66.1593 349.879 67.0362 345.353 67.0362ZM348.832 57.1078C350.812 57.1078 352.679 56.6835 354.433 55.835C356.356 54.9298 357.742 53.7135 358.591 52.1861C359.439 50.6586 359.949 48.6503 360.118 46.1612V45.9914C360.118 45.4823 359.949 45.1146 359.609 44.8883C359.326 44.662 358.93 44.6054 358.421 44.7186L350.105 46.3309C348.465 46.6703 347.163 47.038 346.202 47.434C345.297 47.83 344.533 48.3109 343.911 48.8766C342.949 49.8383 342.468 50.9698 342.468 52.2709C342.468 53.8549 343.062 55.0712 344.25 55.9198C345.438 56.7118 346.965 57.1078 348.832 57.1078Z" fill="#252521"/>
<path d="M320.281 67.0423C318.244 67.0423 316.462 66.3069 314.935 64.836C313.464 63.3652 312.728 61.6114 312.728 59.5748C312.728 57.5383 313.464 55.8128 314.935 54.3985C316.462 52.9842 318.244 52.2771 320.281 52.2771C322.261 52.2771 323.958 53.0125 325.372 54.4834C326.786 55.8977 327.493 57.5948 327.493 59.5748C327.493 61.6114 326.786 63.3652 325.372 64.836C323.958 66.3069 322.261 67.0423 320.281 67.0423Z" fill="#252521"/>
<path d="M285.976 67.0362C281.111 67.0362 276.783 65.9896 272.993 63.8965C269.259 61.8033 266.346 58.8616 264.253 55.0712C262.159 51.2243 261.113 46.8117 261.113 41.8334C261.113 37.0248 262.159 32.7536 264.253 29.0199C266.346 25.2861 269.259 22.3727 272.993 20.2795C276.783 18.1863 281.111 17.1398 285.976 17.1398C290.841 17.1398 295.141 18.1863 298.874 20.2795C302.665 22.3727 305.578 25.2861 307.615 29.0199C309.708 32.7536 310.754 37.0248 310.754 41.8334C310.754 46.8117 309.708 51.2243 307.615 55.0712C305.578 58.8616 302.693 61.8033 298.959 63.8965C295.225 65.9896 290.898 67.0362 285.976 67.0362ZM285.976 55.9198C289.427 55.9198 292.199 54.647 294.292 52.1012C296.385 49.4989 297.432 46.0763 297.432 41.8334C297.432 37.8168 296.385 34.5356 294.292 31.9899C292.199 29.4442 289.427 28.1713 285.976 28.1713C282.525 28.1713 279.725 29.4442 277.575 31.9899C275.425 34.4791 274.351 37.7602 274.351 41.8334C274.351 46.0763 275.425 49.4989 277.575 52.1012C279.725 54.647 282.525 55.9198 285.976 55.9198Z" fill="#252521"/>
<path d="M238.197 67.0362C232.596 67.0362 227.618 65.7633 223.262 63.2176C218.963 60.6153 216.247 56.6553 215.116 51.3375V50.9981C215.116 50.1495 215.597 49.7252 216.558 49.7252H226.147C226.939 49.7252 227.505 50.1212 227.844 50.9132C228.749 52.9498 230.079 54.5055 231.833 55.5804C233.643 56.5987 235.708 57.1078 238.027 57.1078C240.234 57.1078 242.044 56.6835 243.458 55.835C244.929 54.9298 245.664 53.7135 245.664 52.1861C245.664 50.4889 244.816 49.2726 243.119 48.5372C241.422 47.8018 238.734 47.038 235.057 46.246C231.323 45.5106 228.212 44.7186 225.723 43.87C223.29 43.0214 221.197 41.6071 219.443 39.6271C217.69 37.6471 216.813 34.9599 216.813 31.5656C216.813 26.757 218.595 23.1647 222.159 20.7887C225.779 18.3561 230.277 17.1398 235.651 17.1398C241.139 17.1398 245.749 18.4409 249.483 21.0432C253.217 23.6455 255.678 27.3227 256.866 32.0748V32.4142C256.866 33.2628 256.385 33.6871 255.423 33.6871H246.343C245.495 33.6871 244.901 33.2911 244.561 32.499C243.769 30.6322 242.581 29.2462 240.997 28.341C239.47 27.4359 237.688 26.9833 235.651 26.9833C233.615 26.9833 232.002 27.3793 230.814 28.1713C229.626 28.9067 229.032 29.925 229.032 31.2262C229.032 32.8102 229.881 33.9699 231.578 34.7054C233.275 35.4408 235.934 36.1196 239.555 36.7419C243.402 37.4208 246.57 38.1845 249.059 39.0331C251.604 39.8817 253.782 41.296 255.593 43.276C257.403 45.1994 258.308 47.8866 258.308 51.3375C258.308 54.4489 257.488 57.1927 255.847 59.5687C254.263 61.9447 251.944 63.7833 248.889 65.0845C245.891 66.3856 242.327 67.0362 238.197 67.0362Z" fill="#252521"/>
<path d="M185.056 67.0386C177.532 67.0386 172.469 64.3231 169.867 58.8922C169.131 57.3082 168.622 55.5828 168.339 53.7159C168.113 51.849 168 49.0487 168 45.315V19.6879C168 18.6696 168.509 18.1604 169.527 18.1604H179.286C180.304 18.1604 180.813 18.6696 180.813 19.6879V45.4847C180.813 47.8607 180.983 49.7841 181.323 51.255C181.662 52.6693 182.228 53.8008 183.02 54.6493C184.208 55.9505 186.075 56.6011 188.62 56.6011C191.675 56.6011 193.938 55.6959 195.409 53.8856C196.258 52.9239 196.852 51.651 197.191 50.067C197.53 48.483 197.7 46.3898 197.7 43.7875V19.6879C197.7 18.6696 198.209 18.1604 199.228 18.1604H209.071C210.089 18.1604 210.598 18.6696 210.598 19.6879V64.4928C210.598 65.5111 210.089 66.0203 209.071 66.0203H199.228C198.209 66.0203 197.7 65.5111 197.7 64.4928V63.22C197.7 62.3148 197.474 61.8623 197.021 61.8623C196.738 61.8623 196.427 62.0885 196.088 62.5411C194.617 64.0686 193.005 65.2 191.251 65.9354C189.497 66.6709 187.432 67.0386 185.056 67.0386Z" fill="#252521"/>
<path d="M160.153 82.9046C156.476 82.9046 153.676 82.056 151.752 80.3589C149.829 78.6617 148.867 76.2009 148.867 72.9763V63.1327C148.867 62.3407 148.641 61.9447 148.188 61.9447C147.905 61.9447 147.566 62.1427 147.17 62.5387C145.643 64.1793 143.974 65.339 142.163 66.0179C140.41 66.6968 138.345 67.0362 135.969 67.0362C131.896 67.0362 128.275 65.9896 125.107 63.8965C121.939 61.7467 119.45 58.805 117.64 55.0712C115.886 51.2809 115.009 46.9532 115.009 42.088C115.009 37.2228 115.886 32.9233 117.64 29.1896C119.45 25.3993 121.939 22.4575 125.107 20.3644C128.275 18.2146 131.896 17.1398 135.969 17.1398C138.345 17.1398 140.41 17.4792 142.163 18.1581C143.974 18.8369 145.643 19.9684 147.17 21.5524C147.566 22.005 147.934 22.2312 148.273 22.2312C148.669 22.2312 148.867 21.9201 148.867 21.2978V19.6855C148.867 18.6672 149.376 18.1581 150.395 18.1581H160.238C161.256 18.1581 161.765 18.6672 161.765 19.6855V69.0728C161.765 71.2225 162.84 72.2974 164.99 72.2974H167.111C168.13 72.2974 168.639 72.8065 168.639 73.8248V81.3772C168.639 81.8298 168.497 82.1975 168.215 82.4803C167.932 82.7632 167.564 82.9046 167.111 82.9046H160.153ZM139.278 56.0047C142.673 56.0047 145.416 54.7318 147.509 52.1861C149.659 49.5838 150.734 46.2177 150.734 42.088C150.734 37.9582 149.659 34.6205 147.509 32.0748C145.416 29.4724 142.673 28.1713 139.278 28.1713C135.884 28.1713 133.14 29.4724 131.047 32.0748C129.01 34.6205 127.992 37.9582 127.992 42.088C127.992 46.2177 129.01 49.5838 131.047 52.1861C133.14 54.7318 135.884 56.0047 139.278 56.0047Z" fill="#252521"/>
</svg>
